# xmcd CD database file
#
# Track frame offsets:
#	150
#	21288
#	37910
#	54044
#	71730
#	82716
#	96419
#	115269
#	132743
#	149022
#	165409
#	187779
#	203782
#	219750
#	238600
#	256074
#	269955
#	283151
#	303167
#
# Disc length: 4272 seconds
#
# Revision: 2
# Processed by: cddbd v1.4b41PL1 Copyright (c) Steve Scherf et al.
# Submitted via: Feurio! 1.52 - http://www.feurio.com
#
DISCID=0e10ae13
DTITLE=Various Artist - Immer Aktuell 2000
DYEAR=1900
DGENRE=
TTITLE0=Jeanette Biedermann - Das tut unheimlich weh
TTITLE1=Michelle - Dein Püppchen tanzt nicht mehr
TTITLE2=Wolfgang Petry - Da geht mir voll einer ab
TTITLE3=Howard Carpendale - Schade (U-Bahn)
TTITLE4=Klaus Densow - Frauen Sind Schweine
TTITLE5=Michelle - Kleine Prinzessin
TTITLE6=Reinhard Fendrich - Macho  Macho
TTITLE7=Reinhard May - Ueber den Wolken
TTITLE8=Roland Kaiser - Ich glaub es geht schon wieder los
TTITLE9=Costa Cordalis - Viva La Noche '97
TTITLE10=Marianne Rosenberg - Ich denk an dich
TTITLE11=Mathias Reim - Verdammt ich lieb dich
TTITLE12=Münchner Freiheit - Tausendmal Du
TTITLE13=Reinhard Fendrich - Macho, Macho
TTITLE14=Reinhard May - Über den Wolken
TTITLE15=Sara @ Tic Tac Two - Nie Wieder
TTITLE16=Heike Makatsch - Stand by Your man
TTITLE17=Herbert Grönemeyer - Flugzeuge Im Bauch (2000)
TTITLE18=Witt - Bataillon D'Amour
EXTD=
EXTT0=(Tanz version)
EXTT1=
EXTT2=
EXTT3=
EXTT4=
EXTT5=
EXTT6=
EXTT7=
EXTT8=
EXTT9=(Radio Mix)
EXTT10=
EXTT11=
EXTT12=
EXTT13=
EXTT14=
EXTT15=
EXTT16=
EXTT17=
EXTT18=
PLAYORDER=
